<svg version="1.1" id="Layer_1" xmlns="http://www.w3.org/2000/svg" xmlns:xlink="http://www.w3.org/1999/xlink" x="0px" y="0px"
	 width="100%" viewBox="0 0 219 303" enable-background="new 0 0 219 303" xml:space="preserve">
<path fill="#E8F5EF" opacity="1.000000" stroke="none" 
	d="
M197.000000,1.000000 
	C204.662888,1.000000 212.325775,1.000000 219.991486,1.000000 
	C219.994324,101.946465 219.994324,202.892929 219.994324,303.919678 
	C147.089584,303.919678 74.179054,303.919678 1.134259,303.919678 
	C1.134259,203.000122 1.134259,102.000092 1.134259,1.000000 
	C14.408861,1.000000 27.735773,1.000000 41.495930,1.344558 
	C41.619553,2.793222 41.309929,3.897329 40.623116,5.002593 
	C38.498333,6.341856 36.750740,7.679963 34.674049,8.867076 
	C32.101864,7.579201 30.396221,8.066590 30.178652,10.680079 
	C30.098030,11.648507 31.277864,12.721868 31.882864,13.747374 
	C32.921604,12.497309 33.960346,11.247245 35.320133,10.028023 
	C37.028931,10.986017 38.416679,11.913169 40.702412,13.440259 
	C41.190472,11.388949 41.593830,9.693639 42.366478,7.992271 
	C47.894249,7.559330 46.293461,3.974248 46.000000,1.000000 
	C69.354225,1.000000 92.708458,1.000000 116.489189,1.356993 
	C115.968033,2.756750 114.898178,3.714742 114.101929,4.862543 
	C112.963699,6.503322 112.025642,8.282970 110.708832,9.852703 
	C106.814995,6.366567 105.901535,10.004714 104.532677,11.995106 
	C103.302513,10.998565 102.154556,10.068621 100.166412,8.458047 
	C100.598053,10.806993 100.799477,11.903163 101.000458,12.999666 
	C101.000000,13.000000 100.999374,13.000846 100.633408,13.007128 
	C98.844879,14.347713 97.422310,15.682017 95.706383,16.884926 
	C93.360893,17.741222 89.297852,12.996536 88.691650,19.141676 
	C85.111580,21.077021 81.979965,23.920246 78.540298,24.361385 
	C75.330727,24.773014 76.263130,26.293402 75.525177,27.902210 
	C66.264381,27.982407 57.466518,27.985716 48.668674,28.000244 
	C41.765377,28.011644 39.523830,29.447407 37.088421,35.860939 
	C34.682022,42.198078 32.200836,48.528896 30.275766,55.017742 
	C29.261208,58.437523 27.547239,59.602871 23.933216,59.086823 
	C23.085047,59.710735 22.581738,60.370468 22.034275,61.357292 
	C21.886757,62.111000 21.783392,62.537609 21.365261,62.911545 
	C16.354042,60.324245 13.255208,61.116806 11.575826,65.731888 
	C11.238547,66.658760 12.784193,68.283836 13.516297,69.555542 
	C13.561840,69.634659 14.086399,69.437996 14.379626,69.371559 
	C14.468212,68.171326 14.555476,66.989006 14.549766,67.066376 
	C17.436609,66.645729 19.537464,66.339615 21.716372,66.439514 
	C22.068712,76.817200 30.385336,71.016083 34.954300,73.679329 
	C35.804737,81.017609 36.750401,88.722855 37.580654,96.440514 
	C39.105785,110.617500 40.562939,124.801811 41.799309,139.169754 
	C40.782120,139.968414 39.989254,140.552094 39.251247,141.198425 
	C37.819454,142.452332 36.418510,143.741470 34.675259,144.866089 
	C32.100090,143.581345 30.393885,144.071762 30.178165,146.685852 
	C30.098316,147.653458 31.282238,148.725372 31.889801,149.749710 
	C32.926006,148.496353 33.962212,147.242981 35.329582,146.023560 
	C36.774853,146.705780 37.888962,147.354050 38.877098,148.053711 
	C38.833286,148.069061 38.915436,148.033005 39.413651,148.000214 
	C40.940182,147.990677 42.050652,147.977875 43.318848,148.271011 
	C45.101116,150.554199 47.003452,152.364868 48.305161,154.535706 
	C56.833866,168.758911 65.232758,183.059967 73.606194,197.220856 
	C69.324951,203.194595 69.242767,205.409470 73.059586,211.456284 
	C79.430237,221.549011 85.836861,231.619064 91.870369,241.783813 
	C90.823059,242.389694 89.498108,242.977066 89.544609,243.420624 
	C89.928741,247.083954 93.003616,248.944275 97.133392,248.232147 
	C100.958473,250.951172 104.576607,250.811722 107.956787,248.434998 
	C111.959549,245.620529 111.813492,241.546814 111.081528,237.250397 
	C112.643204,237.437912 113.822060,237.719269 114.807625,238.122223 
	C114.626282,238.571808 114.638229,238.899765 114.650185,239.227722 
	C114.766472,238.818069 114.882751,238.408432 115.355751,237.992981 
	C118.221840,236.386368 119.187218,232.523300 123.469559,233.035309 
	C128.243835,235.092392 132.004333,234.074615 134.983749,230.469879 
	C138.041138,226.770874 136.904037,223.107529 134.593460,219.455200 
	C128.655518,210.069077 122.803146,200.628769 116.942162,190.872757 
	C118.525742,190.027634 120.083740,189.519882 121.854340,189.295441 
	C127.821358,198.499512 133.575821,207.420242 139.330170,216.341049 
	C141.414062,219.571686 143.937775,222.038239 148.216522,221.448029 
	C155.213608,220.482834 158.385529,213.925888 154.499878,207.690582 
	C146.955902,195.584717 139.301254,183.537933 131.273163,171.752289 
	C129.738373,169.499161 126.274132,168.558853 123.697067,167.017883 
	C122.662750,166.399399 121.181320,166.053009 120.646568,165.145065 
	C110.299492,147.577011 100.062744,129.943985 90.017517,112.039246 
	C92.804329,111.071396 97.241455,113.744041 97.320633,108.136124 
	C100.466339,107.500046 103.289688,106.721947 106.392395,106.138741 
	C121.004539,130.803879 135.289368,155.302582 149.768066,179.686188 
	C150.838760,181.489349 153.304596,182.464081 155.121841,183.823944 
	C156.048965,181.701752 157.489044,179.650650 157.794998,177.442383 
	C158.406433,173.029343 158.396255,168.530182 158.968491,164.038300 
	C161.743866,162.192429 164.193527,160.374817 166.643188,158.557205 
	C168.785995,158.721848 171.744278,160.114151 172.418228,154.928192 
	C174.176239,154.972534 175.528992,154.996506 176.937271,155.475220 
	C177.464478,164.508820 177.936142,173.087692 178.446640,182.373001 
	C179.385971,181.385361 179.754440,181.183380 179.782104,180.942291 
	C181.538589,165.635330 183.226379,150.320374 185.012650,135.016937 
	C186.259750,124.332626 187.638290,113.663658 189.346710,102.983063 
	C190.984222,101.558655 192.008224,99.793694 193.534363,98.799698 
	C195.870590,97.278069 198.353394,95.818832 196.237625,92.941017 
	C195.824493,92.379082 192.112701,94.242317 189.865005,94.543091 
	C190.568939,87.063454 191.330231,80.027718 192.103287,72.883232 
	C195.273544,72.883232 197.770828,72.994423 200.254211,72.856140 
	C203.642899,72.667435 205.391235,70.868759 205.177399,67.345810 
	C204.974274,63.999474 206.141876,60.163731 201.061111,59.012989 
	C199.555893,58.672070 197.721619,57.170128 197.152863,55.752861 
	C194.434464,48.978912 192.162018,42.027737 189.606522,35.186081 
	C187.802933,30.357475 184.601562,27.680143 179.020142,27.922499 
	C172.708771,28.196550 166.371964,27.885107 160.275284,27.606377 
	C164.864746,25.755901 161.608841,24.090399 160.800797,22.385937 
	C159.130585,23.000414 157.716156,23.520782 156.091034,24.118668 
	C156.376266,25.304937 156.679504,26.566046 156.519470,27.894081 
	C132.384689,27.917980 108.713173,27.874950 85.241417,27.601681 
	C88.297096,25.308289 90.193352,22.722805 90.272705,19.213320 
	C93.853622,23.036879 94.862480,22.968176 97.370117,18.990150 
	C101.966454,16.949802 106.214783,14.985665 110.332138,12.777342 
	C110.890289,12.477977 110.791885,10.954457 111.311783,10.140348 
	C113.298515,11.030931 114.970955,11.778925 116.643387,12.526918 
	C117.071716,10.959372 117.500038,9.391826 117.947319,7.754896 
	C123.415680,7.762910 121.854424,4.208527 121.000000,1.000000 
	C144.687561,1.000000 168.375122,1.000000 192.488724,1.364858 
	C191.863220,2.824792 190.806915,3.915342 189.761337,5.016105 
	C188.503387,6.340454 187.254593,7.673499 185.671402,8.856502 
	C183.094666,7.581450 181.337143,8.076036 181.201538,10.685060 
	C181.149185,11.692337 182.604202,12.777954 183.372467,13.827883 
	C184.247498,12.217992 185.122528,10.608101 186.276550,9.135950 
	C187.961731,10.509399 189.367935,11.745109 191.126404,13.290387 
	C194.172028,9.562476 197.881836,6.468930 197.000000,1.000000 
M7.488343,114.634827 
	C6.911219,114.199844 6.334095,113.764870 5.756972,113.329895 
	C5.429359,114.994896 5.602148,116.771698 6.399294,117.120140 
	C7.528072,117.613548 9.248045,117.353920 10.459602,116.827522 
	C11.155902,116.524986 11.767091,114.994606 11.633022,114.139847 
	C11.526051,113.457848 10.233891,112.961746 9.467823,112.383125 
	C8.977904,113.255913 8.487987,114.128693 8.000000,115.000000 
	C8.000000,115.000000 8.001444,114.998108 7.488343,114.634827 
M21.762964,108.993614 
	C24.298302,108.647270 27.535555,108.854599 25.974342,104.705902 
	C25.691818,103.955124 24.138762,103.682472 23.172266,103.189079 
	C22.449306,104.798714 21.726347,106.408348 20.341045,107.714798 
	C18.421486,107.218437 16.501925,106.722084 13.417283,105.924469 
	C15.149073,109.052391 16.208582,110.966057 17.851078,113.932701 
	C19.265417,111.713112 20.131773,110.353500 21.762964,108.993614 
M20.427887,17.717741 
	C18.474697,17.166258 16.521507,16.614773 13.222411,15.683271 
	C15.127134,19.064730 16.203789,20.976116 17.865894,23.926855 
	C19.272629,21.711504 20.135403,20.352795 21.762978,18.993418 
	C24.297997,18.648705 27.529833,18.853453 25.977173,14.709233 
	C25.695724,13.958021 24.144104,13.682687 23.178867,13.187660 
	C22.453213,14.794189 21.727560,16.400719 20.427887,17.717741 
M171.361160,17.664444 
	C169.288330,17.003210 167.215515,16.341976 165.142685,15.680743 
	C164.820129,16.244747 164.497574,16.808750 164.175018,17.372755 
	C166.047775,18.966644 167.920547,20.560534 169.793304,22.154423 
	C170.528259,20.768757 171.263214,19.383089 172.637405,18.280622 
	C174.308853,17.607960 175.980286,16.935297 177.651718,16.262621 
	C176.903824,15.304661 176.155914,14.346700 175.408005,13.388743 
	C174.272659,14.764241 173.132416,16.135805 172.012329,17.523609 
	C171.933029,17.621880 172.001862,17.839710 171.361160,17.664444 
M118.718208,143.913498 
	C119.733658,142.870728 120.993797,141.952713 121.625359,140.714188 
	C121.832733,140.307526 120.410507,139.069870 119.733482,138.212219 
	C118.488785,139.474411 117.244087,140.736588 115.347641,141.708755 
	C113.978714,142.074692 112.609779,142.440643 111.240852,142.806580 
	C112.529663,144.965973 113.818466,147.125351 115.107277,149.284744 
	C115.661438,149.221512 116.215599,149.158264 116.769760,149.095032 
	C117.178596,147.396042 117.587440,145.697037 118.718208,143.913498 
M171.331299,198.703766 
	C169.472137,198.224808 167.612976,197.745850 166.303711,197.408554 
	C164.289566,199.537796 162.644730,201.276627 160.370361,203.101044 
	C159.010071,204.183929 157.649796,205.266815 156.087723,206.510361 
	C158.861771,210.253632 161.033752,209.643326 163.527756,206.198898 
	C164.397278,204.804276 165.266785,203.409637 166.120163,202.040924 
	C170.328705,204.761154 171.411819,204.251144 172.662842,199.291855 
	C174.264618,199.077698 175.866379,198.863541 177.468155,198.649399 
	C176.987900,197.347260 176.665787,195.946884 175.948364,194.792068 
	C175.667389,194.339783 173.918365,194.149323 173.827850,194.331467 
	C173.086975,195.822556 172.579926,197.429840 171.331299,198.703766 
M9.317844,158.122955 
	C7.930413,159.108871 6.542982,160.094788 4.944241,161.230865 
	C7.818251,165.300446 9.954726,163.975052 12.643215,160.993103 
	C13.466785,159.815125 14.290355,158.637146 15.167477,157.382568 
	C17.980238,158.932236 20.676580,159.879517 21.821251,154.995758 
	C22.646410,154.976379 23.706512,155.272491 24.246582,154.870285 
	C25.290033,154.093216 26.356800,153.032516 26.764053,151.863068 
	C26.939686,151.358734 25.523518,149.659393 24.786713,149.630814 
	C23.729486,149.589783 22.411150,150.371521 21.626324,151.201233 
	C21.061424,151.798416 21.185085,153.046906 20.331312,153.705688 
	C18.472809,153.224152 16.614304,152.742615 15.307333,152.403976 
	C13.290092,154.535934 11.644715,156.274872 9.317844,158.122955 
M20.330477,288.705048 
	C18.474838,288.225769 16.619202,287.746490 14.279991,287.142334 
	C13.139148,289.882202 12.070934,292.447662 10.509422,294.657410 
	C8.711406,294.945587 6.913390,295.233734 4.443126,295.629639 
	C5.958476,297.683380 6.784662,298.803101 7.819696,300.205902 
	C9.442672,298.953979 10.714482,297.972931 12.606292,296.656281 
	C13.335995,295.275543 14.065698,293.894836 14.787658,292.509918 
	C20.286320,294.679932 20.531260,294.541351 21.664862,289.293060 
	C23.324570,288.933899 24.984276,288.574768 26.643974,288.215607 
	C26.135826,287.250366 25.503452,285.421417 25.141621,285.473450 
	C23.773926,285.670166 22.429762,286.373993 21.223036,287.123474 
	C20.889242,287.330811 21.062016,288.353729 20.330477,288.705048 
M191.710587,282.857117 
	C193.182663,281.280334 194.799255,279.809174 196.063034,278.080109 
	C196.654221,277.271301 197.111053,275.645142 196.696014,274.933136 
	C193.230881,268.988647 192.977875,277.512177 190.238953,276.510010 
	C189.341293,276.181549 187.653625,277.320740 186.710114,278.199707 
	C186.397598,278.490875 187.028290,280.317261 187.686539,280.998169 
	C188.551971,281.893372 189.870697,282.350372 190.742737,283.102722 
	C190.829987,283.070526 190.917252,283.038300 191.710587,282.857117 
M186.557068,190.275040 
	C187.962479,191.502090 189.367905,192.729141 190.765274,193.949173 
	C192.804214,191.660934 194.892059,189.580582 196.602753,187.226212 
	C197.071701,186.580841 196.628418,185.011505 196.180939,184.066360 
	C195.940292,183.558044 194.452667,183.018738 194.125366,183.270508 
	C191.339462,185.413193 188.690964,187.734528 185.368530,189.729523 
	C184.592422,189.661758 183.410828,189.248077 183.117371,189.592056 
	C182.285431,190.567215 181.580582,191.804581 181.331161,193.040680 
	C181.242081,193.482147 183.046677,194.841110 183.226364,194.713150 
	C184.265350,193.973373 185.182358,192.987228 185.915619,191.928635 
	C186.225708,191.480957 185.987274,190.653320 186.557068,190.275040 
M40.245594,186.005432 
	C37.114586,187.420258 33.901176,188.689621 30.923916,190.375900 
	C30.346664,190.702866 30.226389,192.969513 30.758833,193.759216 
	C31.173933,194.374893 33.016525,194.406235 34.066708,194.119141 
	C35.357471,193.766266 36.612530,192.069077 37.658657,192.250031 
	C41.688293,192.947083 41.654915,193.140045 42.734119,188.980484 
	C44.043194,187.949310 45.352268,186.918137 46.661346,185.886978 
	C45.864006,184.954346 45.066666,184.021698 44.269325,183.089050 
	C43.180168,184.060593 42.091011,185.032120 40.245594,186.005432 
M110.340851,280.715118 
	C108.830521,280.790314 107.320183,280.865540 105.809853,280.940735 
	C105.983711,282.527191 106.157578,284.113647 106.331444,285.700134 
	C106.802338,285.850250 107.273239,286.000397 107.744141,286.150543 
	C108.828682,284.762146 109.913231,283.373749 111.715759,282.008118 
	C112.947533,282.860260 114.179314,283.712372 115.891762,284.897034 
	C116.914513,282.889679 117.430336,280.033508 118.996635,279.233154 
	C121.374115,278.018311 122.821045,276.793549 121.376770,274.596497 
	C120.838333,273.777405 118.134247,274.381958 115.736351,274.200348 
	C99.338379,268.461365 87.993622,256.904327 79.419273,242.313980 
	C70.158783,226.556107 61.119041,210.668579 51.958218,194.851944 
	C51.132259,193.425888 50.124859,192.104919 49.201725,190.735153 
	C48.889130,190.905670 48.576538,191.076187 48.263943,191.246704 
	C51.489002,219.310440 54.714062,247.374191 57.988110,275.864227 
	C76.451881,275.864227 94.252747,275.864227 111.755325,276.567200 
	C111.505051,278.051544 111.254776,279.535919 110.340851,280.715118 
M10.326013,203.015778 
	C8.605329,203.785507 6.884644,204.555237 5.165859,205.324112 
	C7.614420,210.001205 9.034703,210.134171 12.628922,205.987564 
	C13.495232,204.598785 14.361542,203.210007 14.918736,202.316757 
	C16.489689,202.611313 18.075487,203.425156 19.216772,203.011780 
	C21.385698,202.226181 23.498947,200.964218 25.230791,199.440353 
	C26.013609,198.751556 25.827724,196.961853 26.081324,195.671585 
	C24.838594,195.512314 22.628540,194.947281 22.499413,195.255127 
	C20.785513,199.341095 17.694977,197.987854 14.880539,197.295990 
	C13.516864,199.301407 12.258718,201.151611 10.326013,203.015778 
M180.282700,236.990921 
	C179.071182,236.791031 177.859665,236.591141 177.812378,236.583344 
	C176.335495,238.179428 175.466568,239.099884 174.618988,240.039612 
	C173.735794,241.018829 172.873199,242.016617 171.197922,243.005737 
	C169.242050,242.766159 167.286194,242.526596 166.758972,242.462021 
	C162.950317,245.888275 159.802429,248.720108 155.830887,252.292908 
	C157.649750,252.859863 159.711899,254.228531 160.748505,253.675339 
	C162.936874,252.507538 164.588760,250.334427 167.022964,248.044922 
	C171.288589,249.558502 171.514221,249.431442 172.667938,244.293564 
	C177.276016,246.110977 179.165497,242.030334 182.770737,239.994522 
	C185.899582,238.865051 189.028442,237.735580 192.374496,236.527710 
	C193.316528,235.670883 194.954590,234.773972 195.621185,233.404266 
	C196.260147,232.091354 195.890854,230.287781 195.964661,228.699844 
	C194.729843,229.025833 193.422836,229.198288 192.285950,229.732681 
	C191.548477,230.079330 191.163605,231.127655 190.440781,231.562424 
	C187.329529,233.433853 184.151733,235.194656 180.282700,236.990921 
M20.197552,243.005417 
	C18.397820,242.837448 16.598087,242.669464 15.519064,242.568756 
	C11.960654,245.692551 8.774832,248.489258 5.293009,251.545822 
	C5.836416,252.403442 6.594338,253.599640 7.735156,255.400131 
	C10.640624,252.717682 13.156872,250.394577 15.954046,247.812103 
	C18.059860,249.036911 20.904846,250.358627 21.807785,244.996933 
	C24.956545,245.253342 27.346470,244.511261 27.527752,240.479889 
	C24.743717,239.963882 21.929308,238.824646 20.197552,243.005417 
M171.330627,288.705627 
	C169.452057,288.222321 167.573471,287.739044 166.915634,287.569794 
	C162.878983,290.878510 159.656418,293.519958 155.716217,296.749634 
	C157.154083,297.754730 158.832733,299.681976 159.654968,299.367798 
	C162.652908,298.222321 165.673813,296.590210 165.424149,292.251434 
	C168.379517,293.229492 171.973709,296.024139 172.802841,289.996887 
	C174.417099,289.285278 176.031357,288.573669 177.645615,287.862061 
	C176.848953,286.936493 176.052292,286.010956 175.255615,285.085388 
	C174.170822,286.391876 173.086014,287.698364 171.330627,288.705627 
M138.763885,273.100739 
	C137.879379,273.789246 136.994873,274.477753 135.872177,275.351654 
	C147.267044,275.351654 158.017578,275.351654 169.104828,275.351654 
	C170.047897,267.030090 170.957764,259.001465 171.796448,251.600998 
	C166.948578,255.168365 162.335495,258.902435 157.385315,262.117432 
	C151.539719,265.913971 145.402756,269.261871 138.763885,273.100739 
M40.915699,283.031128 
	C42.070004,281.592499 43.428734,280.267883 44.314339,278.679474 
	C45.030533,277.394867 45.176884,275.792542 45.576015,274.331177 
	C44.088833,274.452667 42.408741,274.171692 41.152031,274.774048 
	C37.884251,276.340363 34.725323,278.177704 31.698364,280.172974 
	C30.901098,280.698517 30.741079,282.190796 30.288424,283.239136 
	C31.366400,283.696075 32.624603,284.741150 33.482033,284.478394 
	C34.934967,284.033203 36.134853,282.762207 37.441105,281.838318 
	C37.491009,282.305573 37.540913,282.772797 37.590816,283.240021 
	C38.540234,283.321564 39.489647,283.403107 40.915699,283.031128 
M196.411896,142.831619 
	C197.323639,140.226974 197.128204,137.536331 193.743515,138.493835 
	C190.866806,139.307602 188.473099,141.828751 185.579514,143.788254 
	C187.672272,145.974625 189.173798,147.543304 190.695709,149.133301 
	C192.599411,147.021942 194.242065,145.200104 196.411896,142.831619 
M41.732132,237.005630 
	C42.718407,235.854965 43.773811,234.755142 44.669086,233.537582 
	C45.386246,232.562241 46.400723,231.422638 46.356255,230.396088 
	C46.323040,229.629135 44.444637,228.127716 44.017971,228.323883 
	C41.176437,229.630234 38.432617,231.200638 35.852020,232.969666 
	C35.447121,233.247223 35.679913,235.594055 36.229256,235.905426 
	C37.721283,236.751144 39.541553,237.017776 41.732132,237.005630 
M84.425720,293.357086 
	C82.777580,294.855194 81.129440,296.353302 79.236259,298.074158 
	C78.998955,297.452850 78.436203,295.979523 77.873459,294.506195 
	C77.096695,295.181091 76.319923,295.856018 75.543159,296.530914 
	C76.761154,298.344513 77.979149,300.158142 79.193764,301.966736 
	C81.411110,300.721527 82.977753,299.844482 84.541824,298.962860 
	C87.244904,297.439178 87.686340,295.700287 84.425720,293.357086 
M90.751205,287.423553 
	C91.117851,289.149597 91.184479,291.040405 91.997597,292.521301 
	C92.326614,293.120514 94.284920,292.825165 95.501816,292.936859 
	C95.542778,291.520355 96.148430,289.644592 95.471336,288.812042 
	C94.744484,287.918243 92.812263,288.004700 90.751205,287.423553 
M5.166512,24.469730 
	C5.820712,27.295845 7.475830,28.476940 10.122653,26.966082 
	C10.948092,26.494907 11.210983,25.038225 11.731395,24.032682 
	C9.863860,23.751316 7.999187,23.446295 6.125046,23.219540 
	C5.899433,23.192242 5.622528,23.588873 5.166512,24.469730 
M204.415009,226.316208 
	C204.827789,225.884933 205.240585,225.453659 206.644638,223.986740 
	C203.016220,224.700775 200.714859,225.153671 198.413483,225.606567 
	C198.037582,226.357330 197.661667,227.108109 197.285767,227.858887 
	C198.582230,228.506836 199.950119,229.759338 201.153214,229.617218 
	C202.170654,229.496994 202.997238,227.761505 204.415009,226.316208 
M33.913662,98.649353 
	C31.202366,97.444031 30.018522,98.829300 30.200167,101.276939 
	C30.267433,102.183342 31.755634,102.984299 32.595802,103.833344 
	C33.209053,102.288048 33.822308,100.742752 33.913662,98.649353 
M189.574631,238.515594 
	C189.574631,238.515594 189.481628,238.567413 189.574631,238.515594 
M38.487953,238.572571 
	C38.487953,238.572571 38.435982,238.479568 38.487953,238.572571 
z"/>
<path fill="#DEE9E4" opacity="1.000000" stroke="none" 
	d="
M111.002106,10.003315 
	C112.025642,8.282970 112.963699,6.503322 114.101929,4.862543 
	C114.898178,3.714742 115.968033,2.756750 116.957848,1.356993 
	C118.066673,1.000000 119.133339,1.000000 120.600006,1.000000 
	C121.854424,4.208527 123.415680,7.762910 117.947319,7.754896 
	C117.500038,9.391826 117.071716,10.959372 116.643387,12.526918 
	C114.970955,11.778925 113.298515,11.030931 111.313034,10.141472 
	C111.000000,10.000005 111.002106,10.003315 111.002106,10.003315 
z"/>
<path fill="#DEE9E4" opacity="1.000000" stroke="none" 
	d="
M196.600006,1.000000 
	C197.881836,6.468930 194.172028,9.562476 191.126404,13.290387 
	C189.367935,11.745109 187.961731,10.509399 186.277771,9.136845 
	C186.000000,9.000000 186.001831,9.002788 186.001831,9.002783 
	C187.254593,7.673499 188.503387,6.340454 189.761337,5.016105 
	C190.806915,3.915342 191.863220,2.824792 192.957382,1.364858 
	C194.066666,1.000000 195.133347,1.000000 196.600006,1.000000 
z"/>
<path fill="#DFEAE5" opacity="1.000000" stroke="none" 
	d="
M45.600006,1.000000 
	C46.293461,3.974248 47.894249,7.559330 42.114319,7.777763 
	C41.328682,6.713354 41.164494,5.857395 41.000305,5.001436 
	C41.309929,3.897329 41.619553,2.793222 41.964588,1.344558 
	C43.066669,1.000000 44.133339,1.000000 45.600006,1.000000 
z"/>
<path fill="#019C7E" opacity="1.000000" stroke="none" 
	d="
M116.916573,191.210129 
	C122.803146,200.628769 128.655518,210.069077 134.593460,219.455200 
	C136.904037,223.107529 138.041138,226.770874 134.983749,230.469879 
	C132.004333,234.074615 128.243835,235.092392 123.315323,232.741150 
	C121.236679,230.480927 119.697487,228.594269 118.078873,226.378784 
	C116.431740,223.619583 114.864021,221.189194 113.158295,218.544876 
	C109.392342,221.030823 106.162636,223.162796 102.710197,225.441803 
	C105.586922,229.649826 108.182236,233.446213 110.750595,237.262390 
	C110.723633,237.282166 110.698708,237.344223 110.698708,237.344223 
	C111.813492,241.546814 111.959549,245.620529 107.956787,248.434998 
	C104.576607,250.811722 100.958473,250.951172 97.014969,247.938553 
	C95.383781,245.955734 94.194389,244.476990 92.964378,242.720810 
	C92.651848,242.215942 92.379929,241.988525 92.149002,241.766510 
	C92.190002,241.771927 92.228348,241.698654 92.228348,241.698654 
	C85.836861,231.619064 79.430237,221.549011 73.059586,211.456284 
	C69.242767,205.409470 69.324951,203.194595 73.606194,197.220856 
	C65.232758,183.059967 56.833866,168.758911 48.305161,154.535706 
	C47.003452,152.364868 45.101116,150.554199 43.368565,147.841400 
	C42.856506,144.398270 42.452465,141.690659 42.048424,138.983063 
	C40.562939,124.801811 39.105785,110.617500 37.580654,96.440514 
	C36.750401,88.722855 35.804737,81.017609 34.954300,73.679329 
	C30.385336,71.016083 22.068712,76.817200 21.813898,66.063263 
	C21.782255,64.508728 21.731140,63.736473 21.680027,62.964222 
	C21.783392,62.537609 21.886757,62.111000 22.308104,61.240570 
	C23.176748,60.238716 23.727411,59.680679 24.278076,59.122643 
	C27.547239,59.602871 29.261208,58.437523 30.275766,55.017742 
	C32.200836,48.528896 34.682022,42.198078 37.088421,35.860939 
	C39.523830,29.447407 41.765377,28.011644 48.668674,28.000244 
	C57.466518,27.985716 66.264381,27.982407 75.973312,27.969547 
	C79.603477,27.920527 82.322571,27.876223 85.041656,27.831921 
	C108.713173,27.874950 132.384689,27.917980 156.899353,27.963652 
	C158.510406,27.920284 159.278305,27.874275 160.046219,27.828266 
	C166.371964,27.885107 172.708771,28.196550 179.020142,27.922499 
	C184.601562,27.680143 187.802933,30.357475 189.606522,35.186081 
	C192.162018,42.027737 194.434464,48.978912 197.152863,55.752861 
	C197.721619,57.170128 199.555893,58.672070 201.061111,59.012989 
	C206.141876,60.163731 204.974274,63.999474 205.177399,67.345810 
	C205.391235,70.868759 203.642899,72.667435 200.254211,72.856140 
	C197.770828,72.994423 195.273544,72.883232 192.103287,72.883232 
	C191.330231,80.027718 190.568939,87.063454 189.668579,94.883560 
	C189.339066,98.107895 189.148590,100.547867 188.958130,102.987831 
	C187.638290,113.663658 186.259750,124.332626 185.012650,135.016937 
	C183.226379,150.320374 181.538589,165.635330 179.782104,180.942291 
	C179.754440,181.183380 179.385971,181.385361 178.446640,182.373001 
	C177.936142,173.087692 177.464478,164.508820 177.002533,155.043579 
	C176.883896,152.422440 176.755539,150.687668 176.651672,148.556152 
	C176.474991,146.022751 176.351562,143.875397 176.057831,141.751572 
	C175.244431,135.870239 172.110336,132.618958 167.486725,132.751282 
	C162.864227,132.883606 159.676392,136.324600 159.304916,142.173904 
	C158.970627,147.437683 159.066895,152.728775 158.840363,158.364319 
	C158.685898,160.502731 158.664337,162.284653 158.642792,164.066574 
	C158.396255,168.530182 158.406433,173.029343 157.794998,177.442383 
	C157.489044,179.650650 156.048965,181.701752 155.121841,183.823944 
	C153.304596,182.464081 150.838760,181.489349 149.768066,179.686188 
	C135.289368,155.302582 121.004539,130.803879 106.324066,105.796043 
	C104.011894,103.100273 102.047409,100.942101 99.791634,98.525406 
	C92.347099,97.553719 89.159660,99.695694 87.867729,106.341507 
	C87.858574,107.108276 87.951027,107.549332 88.010895,108.249969 
	C88.045410,108.670555 88.112488,108.831551 88.191376,109.312180 
	C88.736549,110.529320 89.269920,111.426826 89.803291,112.324326 
	C100.062744,129.943985 110.299492,147.577011 120.646568,165.145065 
	C121.181320,166.053009 122.662750,166.399399 123.697067,167.017883 
	C126.274132,168.558853 129.738373,169.499161 131.273163,171.752289 
	C139.301254,183.537933 146.955902,195.584717 154.499878,207.690582 
	C158.385529,213.925888 155.213608,220.482834 148.216522,221.448029 
	C143.937775,222.038239 141.414062,219.571686 139.330170,216.341049 
	C133.575821,207.420242 127.821358,198.499512 121.740517,188.989532 
	C119.281570,184.354294 115.211952,180.181915 115.465714,176.291565 
	C115.856773,170.296448 113.110107,166.343079 110.502098,161.995026 
	C108.375122,158.448914 105.740837,155.207092 103.282104,151.480453 
	C102.815033,150.094086 102.397331,149.057617 101.990463,148.011200 
	C102.001282,148.001251 101.974403,148.010681 101.940842,147.718750 
	C101.650925,147.146881 101.394569,146.866928 101.078705,146.252380 
	C95.416748,136.580688 89.814308,127.243576 84.131210,117.575424 
	C83.086830,115.740486 82.123093,114.236588 81.089340,112.394295 
	C78.468964,107.789612 76.070099,103.422989 73.328346,99.283478 
	C70.187103,94.540825 65.729446,93.550362 61.300804,96.249374 
	C56.877945,98.944870 55.482620,103.543968 58.234188,108.274132 
	C72.151489,132.199097 86.207420,156.043427 100.446533,180.311096 
	C107.571960,177.911774 111.166130,182.311401 114.272224,187.673218 
	C115.005066,188.938278 116.027405,190.035629 116.916573,191.210129 
M82.886681,164.342163 
	C81.932465,162.887100 80.978249,161.432037 79.910950,159.284164 
	C75.957809,152.550232 72.015526,145.809891 68.047676,139.084641 
	C65.430779,134.649155 62.960003,130.112244 60.088501,125.846474 
	C57.216091,121.579338 52.378838,120.662498 48.278942,123.161873 
	C44.295441,125.590294 42.981735,129.867981 44.975681,134.406128 
	C45.773129,136.221085 46.823853,137.932663 47.844112,139.640625 
	C62.152603,163.593796 74.950623,188.516754 93.018616,210.056671 
	C93.311493,210.405823 93.749359,210.633362 94.296906,211.053818 
	C97.595634,208.874100 100.843925,206.727692 103.124573,205.220688 
	C100.305580,198.175949 98.199730,191.617081 95.119179,185.553391 
	C91.523354,178.475449 87.076370,171.829941 82.886681,164.342163 
M119.381569,47.081253 
	C116.204643,49.048492 113.027718,51.015732 109.850792,52.982971 
	C108.643486,53.942097 107.062279,54.488876 105.630463,55.299503 
	C105.499283,55.373772 106.363434,57.988731 106.697350,57.973072 
	C108.660057,57.881020 110.602570,57.358200 112.551888,56.980560 
	C114.319145,56.956074 116.342484,57.103310 117.600258,56.192902 
	C119.033134,55.155735 120.155968,53.293629 120.705460,51.564980 
	C121.105919,50.305176 120.358658,48.680546 119.381569,47.081253 
z"/>
<path fill="#059D80" opacity="1.000000" stroke="none" 
	d="
M112.053612,275.864227 
	C94.252747,275.864227 76.451881,275.864227 57.988110,275.864227 
	C54.714062,247.374191 51.489002,219.310440 48.263943,191.246704 
	C48.576538,191.076187 48.889130,190.905670 49.201725,190.735153 
	C50.124859,192.104919 51.132259,193.425888 51.958218,194.851944 
	C61.119041,210.668579 70.158783,226.556107 79.419273,242.313980 
	C87.993622,256.904327 99.338379,268.461365 116.156052,274.506744 
	C116.656319,274.943756 116.795158,275.072113 116.800331,275.205658 
	C116.805077,275.328522 116.673950,275.560974 116.589134,275.567413 
	C115.078529,275.682526 113.565842,275.770447 112.053612,275.864227 
z"/>
<path fill="#E5F3EE" opacity="1.000000" stroke="none" 
	d="
M116.942162,190.872757 
	C116.027405,190.035629 115.005066,188.938278 114.272224,187.673218 
	C111.166130,182.311401 107.571960,177.911774 100.446533,180.311096 
	C86.207420,156.043427 72.151489,132.199097 58.234188,108.274132 
	C55.482620,103.543968 56.877945,98.944870 61.300804,96.249374 
	C65.729446,93.550362 70.187103,94.540825 73.328346,99.283478 
	C76.070099,103.422989 78.468964,107.789612 80.926651,112.704361 
	C79.334991,113.955383 77.835999,114.557930 75.666100,115.430161 
	C76.821999,117.164314 77.978653,118.899605 79.193481,120.722168 
	C81.173698,119.611122 82.692787,118.758804 84.211868,117.906479 
	C89.814308,127.243576 95.416748,136.580688 101.122154,146.538712 
	C101.474884,147.443314 101.724640,147.726990 101.974403,148.010681 
	C101.974403,148.010681 102.001282,148.001251 101.763336,148.266235 
	C99.684418,150.027786 97.843437,151.524353 95.690369,152.881668 
	C93.586411,152.827042 91.794540,152.911697 89.950882,152.870605 
	C89.821442,152.699463 89.743782,152.654083 89.666122,152.608704 
	C89.776291,152.740021 89.886452,152.871338 90.039398,153.361755 
	C91.333336,155.416809 92.584480,157.112793 93.835632,158.808762 
	C94.884422,157.535492 95.933220,156.262222 97.368385,154.989258 
	C99.613670,153.936493 101.472580,152.883423 103.331482,151.830353 
	C105.740837,155.207092 108.375122,158.448914 110.502098,161.995026 
	C113.110107,166.343079 115.856773,170.296448 115.465714,176.291565 
	C115.211952,180.181915 119.281570,184.354294 121.527908,188.706207 
	C120.083740,189.519882 118.525742,190.027634 116.942162,190.872757 
z"/>
<path fill="#0CA185" opacity="1.000000" stroke="none" 
	d="
M139.077988,272.952484 
	C145.402756,269.261871 151.539719,265.913971 157.385315,262.117432 
	C162.335495,258.902435 166.948578,255.168365 171.796448,251.600998 
	C170.957764,259.001465 170.047897,267.030090 169.104828,275.351654 
	C158.017578,275.351654 147.267044,275.351654 135.872177,275.351654 
	C136.994873,274.477753 137.879379,273.789246 139.077988,272.952484 
z"/>
<path fill="#DEE9E4" opacity="1.000000" stroke="none" 
	d="
M40.677383,283.257874 
	C39.489647,283.403107 38.540234,283.321564 37.590816,283.240021 
	C37.540913,282.772797 37.491009,282.305573 37.441105,281.838318 
	C36.134853,282.762207 34.934967,284.033203 33.482033,284.478394 
	C32.624603,284.741150 31.366400,283.696075 30.288424,283.239136 
	C30.741079,282.190796 30.901098,280.698517 31.698364,280.172974 
	C34.725323,278.177704 37.884251,276.340363 41.152031,274.774048 
	C42.408741,274.171692 44.088833,274.452667 45.576015,274.331177 
	C45.176884,275.792542 45.030533,277.394867 44.314339,278.679474 
	C43.428734,280.267883 42.070004,281.592499 40.677383,283.257874 
z"/>
<path fill="#DEE9E4" opacity="1.000000" stroke="none" 
	d="
M171.999069,289.996338 
	C171.973709,296.024139 168.379517,293.229492 165.424149,292.251434 
	C165.673813,296.590210 162.652908,298.222321 159.654968,299.367798 
	C158.832733,299.681976 157.154083,297.754730 155.716217,296.749634 
	C159.656418,293.519958 162.878983,290.878510 166.915634,287.569794 
	C167.573471,287.739044 169.452057,288.222321 171.665359,289.103088 
	C172.000092,289.500549 171.999069,289.996338 171.999069,289.996338 
z"/>
<path fill="#DEE9E4" opacity="1.000000" stroke="none" 
	d="
M171.998169,243.993469 
	C171.514221,249.431442 171.288589,249.558502 167.022964,248.044922 
	C164.588760,250.334427 162.936874,252.507538 160.748505,253.675339 
	C159.711899,254.228531 157.649750,252.859863 155.830887,252.292908 
	C159.802429,248.720108 162.950317,245.888275 166.758972,242.462021 
	C167.286194,242.526596 169.242050,242.766159 171.598892,243.252777 
	C171.999863,243.499802 171.998169,243.993469 171.998169,243.993469 
z"/>
<path fill="#DDE8E3" opacity="1.000000" stroke="none" 
	d="
M20.998444,244.995728 
	C20.904846,250.358627 18.059860,249.036911 15.954046,247.812103 
	C13.156872,250.394577 10.640624,252.717682 7.735156,255.400131 
	C6.594338,253.599640 5.836416,252.403442 5.293009,251.545822 
	C8.774832,248.489258 11.960654,245.692551 15.519064,242.568756 
	C16.598087,242.669464 18.397820,242.837448 20.598541,243.337128 
	C20.999170,244.111130 20.998808,244.553421 20.998444,244.995728 
z"/>
<path fill="#DEE9E4" opacity="1.000000" stroke="none" 
	d="
M180.998169,236.995728 
	C184.151733,235.194656 187.329529,233.433853 190.440781,231.562424 
	C191.163605,231.127655 191.548477,230.079330 192.285950,229.732681 
	C193.422836,229.198288 194.729843,229.025833 195.964661,228.699829 
	C195.890854,230.287781 196.260147,232.091354 195.621185,233.404266 
	C194.954590,234.773972 193.316528,235.670883 192.374496,236.527710 
	C189.028442,237.735580 185.899582,238.865051 182.255951,239.701385 
	C181.493484,238.604065 181.245834,237.799896 180.998169,236.995728 
z"/>
<path fill="#DEE9E4" opacity="1.000000" stroke="none" 
	d="
M110.998741,9.998880 
	C110.791885,10.954457 110.890289,12.477977 110.332138,12.777342 
	C106.214783,14.985665 101.966454,16.949802 97.137772,18.816826 
	C96.344040,18.100691 96.171883,17.558504 95.999733,17.016319 
	C97.422310,15.682017 98.844879,14.347713 100.685669,13.132462 
	C101.181114,13.296804 101.258339,13.342097 101.335564,13.387390 
	C101.224014,13.258039 101.112465,13.128685 101.000916,12.999331 
	C100.799477,11.903163 100.598053,10.806993 100.166412,8.458047 
	C102.154556,10.068621 103.302513,10.998565 104.532677,11.995106 
	C105.901535,10.004714 106.814995,6.366567 110.708832,9.852703 
	C111.002106,10.003315 111.000000,10.000005 110.998741,9.998880 
z"/>
<path fill="#DEE9E4" opacity="1.000000" stroke="none" 
	d="
M11.000570,203.001831 
	C12.258718,201.151611 13.516864,199.301407 14.880539,197.295990 
	C17.694977,197.987854 20.785513,199.341095 22.499413,195.255127 
	C22.628540,194.947281 24.838594,195.512314 26.081322,195.671600 
	C25.827724,196.961853 26.013609,198.751556 25.230791,199.440353 
	C23.498947,200.964218 21.385698,202.226181 19.216772,203.011780 
	C18.075487,203.425156 16.489689,202.611313 14.918736,202.316757 
	C14.361542,203.210007 13.495232,204.598785 12.057226,205.774323 
	C11.323876,204.707993 11.162223,203.854919 11.000570,203.001831 
z"/>
<path fill="#D8E7E2" opacity="1.000000" stroke="none" 
	d="
M158.968506,164.038300 
	C158.664337,162.284653 158.685898,160.502731 159.160339,158.389648 
	C161.864471,156.406647 164.115738,154.754791 167.118759,152.551346 
	C167.976639,152.816742 170.002533,153.443512 172.028259,154.279724 
	C172.028076,154.489182 172.012970,154.907806 172.012970,154.907806 
	C171.744278,160.114151 168.785995,158.721848 166.643188,158.557205 
	C164.193527,160.374817 161.743866,162.192429 158.968506,164.038300 
z"/>
<path fill="#DCE9E3" opacity="1.000000" stroke="none" 
	d="
M111.904465,276.215698 
	C113.565842,275.770447 115.078529,275.682526 116.589134,275.567413 
	C116.673950,275.560974 116.805077,275.328522 116.800331,275.205658 
	C116.795158,275.072113 116.656319,274.943756 116.496712,274.575256 
	C118.134247,274.381958 120.838333,273.777405 121.376770,274.596497 
	C122.821045,276.793549 121.374115,278.018311 118.996635,279.233154 
	C117.430336,280.033508 116.914513,282.889679 115.891762,284.897034 
	C114.179314,283.712372 112.947533,282.860260 111.358536,281.755554 
	C111.001312,281.502991 111.004501,281.020264 111.004501,281.020264 
	C111.254776,279.535919 111.505051,278.051544 111.904465,276.215698 
z"/>
<path fill="#DEE9E4" opacity="1.000000" stroke="none" 
	d="
M41.995457,188.980469 
	C41.654915,193.140045 41.688293,192.947083 37.658657,192.250031 
	C36.612530,192.069077 35.357471,193.766266 34.066708,194.119141 
	C33.016525,194.406235 31.173933,194.374893 30.758833,193.759216 
	C30.226389,192.969513 30.346664,190.702866 30.923916,190.375900 
	C33.901176,188.689621 37.114586,187.420258 40.750847,186.295776 
	C41.502548,187.384232 41.749001,188.182358 41.995457,188.980469 
z"/>
<path fill="#DEE9E4" opacity="1.000000" stroke="none" 
	d="
M196.148315,143.104935 
	C194.242065,145.200104 192.599411,147.021942 190.695709,149.133301 
	C189.173798,147.543304 187.672272,145.974625 185.579514,143.788254 
	C188.473099,141.828751 190.866806,139.307602 193.743515,138.493835 
	C197.128204,137.536331 197.323639,140.226974 196.148315,143.104935 
z"/>
<path fill="#DFEAE5" opacity="1.000000" stroke="none" 
	d="
M85.241417,27.601681 
	C82.322571,27.876223 79.603477,27.920527 76.436256,27.897497 
	C76.263130,26.293402 75.330727,24.773014 78.540298,24.361385 
	C81.979965,23.920246 85.111580,21.077021 88.939743,19.140858 
	C89.501846,18.999584 89.998169,18.998983 89.998169,18.998983 
	C90.193352,22.722805 88.297096,25.308289 85.241417,27.601681 
z"/>
<path fill="#DEE9E4" opacity="1.000000" stroke="none" 
	d="
M186.001297,190.002319 
	C188.690964,187.734528 191.339462,185.413193 194.125366,183.270508 
	C194.452667,183.018738 195.940292,183.558044 196.180939,184.066360 
	C196.628418,185.011505 197.071701,186.580841 196.602753,187.226212 
	C194.892059,189.580582 192.804214,191.660934 190.765274,193.949173 
	C189.367905,192.729141 187.962479,191.502090 186.278534,190.137512 
	C186.000000,190.000000 186.001297,190.002319 186.001297,190.002319 
z"/>
<path fill="#DCE9E3" opacity="1.000000" stroke="none" 
	d="
M118.158295,226.707611 
	C119.697487,228.594269 121.236679,230.480927 122.930122,232.661728 
	C119.187218,232.523300 118.221840,236.386368 115.356232,237.993591 
	C115.000000,238.000000 115.000916,238.000626 115.000916,238.000610 
	C113.822060,237.719269 112.643204,237.437912 111.081528,237.250397 
	C110.698708,237.344223 110.723633,237.282166 110.817856,236.840240 
	C110.721954,233.635590 111.592323,231.872726 114.523209,230.819962 
	C116.032555,230.277802 116.965103,228.129913 118.158295,226.707611 
z"/>
<path fill="#DEE9E4" opacity="1.000000" stroke="none" 
	d="
M41.481918,237.259796 
	C39.541553,237.017776 37.721283,236.751144 36.229256,235.905426 
	C35.679913,235.594055 35.447121,233.247223 35.852020,232.969666 
	C38.432617,231.200638 41.176437,229.630234 44.017971,228.323883 
	C44.444637,228.127716 46.323040,229.629135 46.356255,230.396088 
	C46.400723,231.422638 45.386246,232.562241 44.669086,233.537582 
	C43.773811,234.755142 42.718407,235.854965 41.481918,237.259796 
z"/>
<path fill="#DEE9E4" opacity="1.000000" stroke="none" 
	d="
M190.994507,282.995789 
	C189.870697,282.350372 188.551971,281.893372 187.686539,280.998169 
	C187.028290,280.317261 186.397598,278.490875 186.710114,278.199707 
	C187.653625,277.320740 189.341293,276.181549 190.238953,276.510010 
	C192.977875,277.512177 193.230881,268.988647 196.696014,274.933136 
	C197.111053,275.645142 196.654221,277.271301 196.063034,278.080109 
	C194.799255,279.809174 193.182663,281.280334 191.355286,282.928558 
	C191.000000,283.000000 190.994507,282.995789 190.994507,282.995789 
z"/>
<path fill="#DCE9E3" opacity="1.000000" stroke="none" 
	d="
M189.346710,102.983063 
	C189.148590,100.547867 189.339066,98.107895 189.725952,95.327454 
	C192.112701,94.242317 195.824493,92.379082 196.237625,92.941017 
	C198.353394,95.818832 195.870590,97.278069 193.534363,98.799698 
	C192.008224,99.793694 190.984222,101.558655 189.346710,102.983063 
z"/>
<path fill="#DEE9E4" opacity="1.000000" stroke="none" 
	d="
M11.002720,295.013123 
	C12.070934,292.447662 13.139148,289.882202 14.279991,287.142334 
	C16.619202,287.746490 18.474838,288.225769 20.665234,288.852539 
	C20.999992,289.000000 20.997967,288.996643 20.997967,288.996643 
	C20.531260,294.541351 20.286320,294.679932 14.791529,292.512024 
	C14.065698,293.894836 13.335995,295.275543 12.062785,296.650513 
	C11.347092,296.100861 11.174905,295.556976 11.002720,295.013123 
z"/>
<path fill="#DEE9E4" opacity="1.000000" stroke="none" 
	d="
M20.998646,154.995117 
	C20.676580,159.879517 17.980238,158.932236 15.167477,157.382568 
	C14.290355,158.637146 13.466785,159.815125 12.321664,160.996552 
	C12.000113,161.000000 12.002623,161.003006 11.885725,160.786591 
	C11.565487,160.298920 11.303720,160.107590 10.750143,159.821411 
	C10.344288,159.102371 10.171813,158.558090 9.999338,158.013824 
	C11.644715,156.274872 13.290092,154.535934 15.307333,152.403976 
	C16.614304,152.742615 18.472809,153.224152 20.665747,154.102814 
	C21.000181,154.499939 20.998646,154.995117 20.998646,154.995117 
z"/>
<path fill="#D8E7E2" opacity="1.000000" stroke="none" 
	d="
M21.365261,62.911545 
	C21.731140,63.736473 21.782255,64.508728 21.735844,65.657234 
	C19.537464,66.339615 17.436609,66.645729 14.549766,67.066376 
	C14.555476,66.989006 14.468212,68.171326 14.379626,69.371559 
	C14.086399,69.437996 13.561840,69.634659 13.516297,69.555542 
	C12.784193,68.283836 11.238547,66.658760 11.575826,65.731888 
	C13.255208,61.116806 16.354042,60.324245 21.365261,62.911545 
z"/>
<path fill="#DEE9E4" opacity="1.000000" stroke="none" 
	d="
M160.999893,203.015472 
	C162.644730,201.276627 164.289566,199.537796 166.303711,197.408554 
	C167.612976,197.745850 169.472137,198.224808 171.665649,198.851883 
	C172.000000,199.000000 171.998169,198.997681 171.998169,198.997681 
	C171.411819,204.251144 170.328705,204.761154 166.120163,202.040924 
	C165.266785,203.409637 164.397278,204.804276 163.264038,206.099503 
	C163.000336,206.000107 163.004166,206.004257 162.887634,205.787277 
	C162.567169,205.298996 162.304947,205.107574 161.751038,204.821472 
	C161.345093,204.103104 161.172485,203.559280 160.999893,203.015472 
z"/>
<path fill="#DEE9E4" opacity="1.000000" stroke="none" 
	d="
M84.732483,293.514709 
	C87.686340,295.700287 87.244904,297.439178 84.541824,298.962860 
	C82.977753,299.844482 81.411110,300.721527 79.193764,301.966736 
	C77.979149,300.158142 76.761154,298.344513 75.543159,296.530914 
	C76.319923,295.856018 77.096695,295.181091 77.873459,294.506195 
	C78.436203,295.979523 78.998955,297.452850 79.236259,298.074158 
	C81.129440,296.353302 82.777580,294.855194 84.732483,293.514709 
z"/>
<path fill="#DEE9E4" opacity="1.000000" stroke="none" 
	d="
M180.640442,236.993317 
	C181.245834,237.799896 181.493484,238.604065 181.869095,239.700867 
	C179.165497,242.030334 177.276016,246.110977 172.333054,244.143524 
	C171.998169,243.993469 171.999863,243.499802 172.000732,243.253052 
	C172.873199,242.016617 173.735794,241.018829 174.618988,240.039612 
	C175.466568,239.099884 176.335495,238.179428 177.812378,236.583344 
	C177.859665,236.591141 179.071182,236.791031 180.640442,236.993317 
z"/>
<path fill="#DAE8E2" opacity="1.000000" stroke="none" 
	d="
M41.799309,139.169754 
	C42.452465,141.690659 42.856506,144.398270 43.210835,147.535461 
	C42.050652,147.977875 40.940182,147.990677 39.414856,148.001740 
	C39.000000,148.000000 39.003071,148.002304 39.003067,148.002304 
	C37.888962,147.354050 36.774853,146.705780 35.331329,145.780228 
	C35.001911,145.502945 35.004787,145.016006 35.004787,145.016006 
	C36.418510,143.741470 37.819454,142.452332 39.251247,141.198425 
	C39.989254,140.552094 40.782120,139.968414 41.799309,139.169754 
z"/>
<path fill="#D8E7E2" opacity="1.000000" stroke="none" 
	d="
M100.082932,98.783920 
	C102.047409,100.942101 104.011894,103.100273 106.044701,105.601151 
	C103.289688,106.721947 100.466339,107.500046 97.321518,108.139221 
	C97.000038,108.000282 97.005257,108.002197 97.005363,107.611725 
	C96.804626,104.368340 97.970116,102.808846 101.047913,103.134171 
	C101.181793,103.304565 101.261421,103.349075 101.341049,103.393578 
	C101.230225,103.260162 101.119408,103.126740 100.968430,102.633301 
	C100.646484,101.110161 100.364708,99.947044 100.082932,98.783920 
z"/>
<path fill="#DDE8E3" opacity="1.000000" stroke="none" 
	d="
M88.043472,107.990387 
	C87.951027,107.549332 87.858574,107.108276 88.174622,106.315781 
	C91.390503,106.643631 94.197876,107.322914 97.005257,108.002197 
	C97.005257,108.002197 97.000038,108.000282 96.999161,107.997192 
	C97.241455,113.744041 92.804329,111.071396 90.017517,112.039246 
	C89.269920,111.426826 88.736549,110.529320 88.418335,109.285500 
	C88.844933,108.763535 89.056381,108.587891 89.267838,108.412247 
	C88.859711,108.271629 88.451591,108.131012 88.043472,107.990387 
z"/>
<path fill="#DDE8E3" opacity="1.000000" stroke="none" 
	d="
M117.996277,143.998032 
	C117.587440,145.697037 117.178596,147.396042 116.769760,149.095032 
	C116.215599,149.158264 115.661438,149.221512 115.107277,149.284744 
	C113.818466,147.125351 112.529663,144.965973 111.240852,142.806580 
	C112.609779,142.440643 113.978714,142.074692 115.789299,142.068329 
	C116.432968,142.695221 116.691223,142.886688 117.118881,143.217224 
	C117.430389,143.701950 117.687454,143.892624 118.001762,144.002075 
	C118.000290,144.000000 117.996277,143.998032 117.996277,143.998032 
z"/>
<path fill="#DEE9E4" opacity="1.000000" stroke="none" 
	d="
M40.623116,5.002593 
	C41.164494,5.857395 41.328682,6.713354 41.745029,7.783821 
	C41.593830,9.693639 41.190472,11.388949 40.702412,13.440259 
	C38.416679,11.913169 37.028931,10.986017 35.320862,9.783262 
	C35.000546,9.507657 35.003151,9.018069 35.003151,9.018069 
	C36.750740,7.679963 38.498333,6.341856 40.623116,5.002593 
z"/>
<path fill="#DDE8E3" opacity="1.000000" stroke="none" 
	d="
M90.272705,19.213320 
	C89.998169,18.998983 89.501846,18.999584 89.253754,19.000402 
	C89.297852,12.996536 93.360893,17.741222 95.706383,16.884926 
	C96.171883,17.558504 96.344040,18.100691 96.748550,18.816200 
	C94.862480,22.968176 93.853622,23.036879 90.272705,19.213320 
z"/>
<path fill="#DEE9E4" opacity="1.000000" stroke="none" 
	d="
M171.998169,17.997425 
	C171.263214,19.383089 170.528259,20.768757 169.793304,22.154423 
	C167.920547,20.560534 166.047775,18.966644 164.175018,17.372755 
	C164.497574,16.808750 164.820129,16.244747 165.142685,15.680743 
	C167.215515,16.341976 169.288330,17.003210 171.680573,17.832222 
	C172.000000,18.000000 171.998169,17.997427 171.998169,17.997425 
z"/>
<path fill="#DDE8E3" opacity="1.000000" stroke="none" 
	d="
M91.078621,287.543488 
	C92.812263,288.004700 94.744484,287.918243 95.471336,288.812042 
	C96.148430,289.644592 95.542778,291.520355 95.501816,292.936859 
	C94.284920,292.825165 92.326614,293.120514 91.997597,292.521301 
	C91.184479,291.040405 91.117851,289.149597 91.078621,287.543488 
z"/>
<path fill="#DDE8E3" opacity="1.000000" stroke="none" 
	d="
M20.998175,18.994083 
	C20.135403,20.352795 19.272629,21.711504 17.865894,23.926855 
	C16.203789,20.976116 15.127134,19.064730 13.222411,15.683271 
	C16.521507,16.614773 18.474697,17.166258 20.713890,18.109158 
	C20.999891,18.500576 20.998175,18.994083 20.998175,18.994083 
z"/>
<path fill="#DDE8E3" opacity="1.000000" stroke="none" 
	d="
M20.998131,108.993896 
	C20.131773,110.353500 19.265417,111.713112 17.851078,113.932701 
	C16.208582,110.966057 15.149073,109.052391 13.417283,105.924469 
	C16.501925,106.722084 18.421486,107.218437 20.670660,108.110260 
	C21.000275,108.505722 20.998133,108.993896 20.998131,108.993896 
z"/>
<path fill="#DFEAE5" opacity="1.000000" stroke="none" 
	d="
M21.403114,244.996338 
	C20.998808,244.553421 20.999170,244.111130 21.000317,243.337158 
	C21.929308,238.824646 24.743717,239.963882 27.527752,240.479889 
	C27.346470,244.511261 24.956545,245.253342 21.403114,244.996338 
z"/>
<path fill="#DEE9E4" opacity="1.000000" stroke="none" 
	d="
M21.409948,154.995438 
	C20.998646,154.995117 21.000181,154.499939 21.000893,154.252411 
	C21.185085,153.046906 21.061424,151.798416 21.626324,151.201233 
	C22.411150,150.371521 23.729486,149.589783 24.786713,149.630814 
	C25.523518,149.659393 26.939686,151.358734 26.764053,151.863068 
	C26.356800,153.032516 25.290033,154.093216 24.246582,154.870285 
	C23.706512,155.272491 22.646410,154.976379 21.409948,154.995438 
z"/>
<path fill="#DDE8E3" opacity="1.000000" stroke="none" 
	d="
M5.267954,24.129375 
	C5.622528,23.588873 5.899433,23.192242 6.125046,23.219540 
	C7.999187,23.446295 9.863860,23.751316 11.731395,24.032682 
	C11.210983,25.038225 10.948092,26.494907 10.122653,26.966082 
	C7.475830,28.476940 5.820712,27.295845 5.267954,24.129375 
M8.430429,25.483648 
	C8.430429,25.483648 8.521059,25.432941 8.430429,25.483648 
z"/>
<path fill="#DEE9E4" opacity="1.000000" stroke="none" 
	d="
M172.000916,199.000916 
	C172.579926,197.429840 173.086975,195.822556 173.827850,194.331467 
	C173.918365,194.149323 175.667389,194.339783 175.948364,194.792068 
	C176.665787,195.946884 176.987900,197.347260 177.468155,198.649399 
	C175.866379,198.863541 174.264618,199.077698 172.330505,199.144775 
	C171.998169,198.997681 172.000000,199.000000 172.000916,199.000916 
z"/>
<path fill="#DEE9E4" opacity="1.000000" stroke="none" 
	d="
M21.380548,108.993759 
	C20.998133,108.993896 21.000275,108.505722 21.001831,108.261856 
	C21.726347,106.408348 22.449306,104.798714 23.172264,103.189079 
	C24.138762,103.682472 25.691818,103.955124 25.974342,104.705902 
	C27.535555,108.854599 24.298302,108.647270 21.380548,108.993759 
z"/>
<path fill="#DEE9E4" opacity="1.000000" stroke="none" 
	d="
M7.998067,115.001480 
	C8.487987,114.128693 8.977904,113.255913 9.467823,112.383125 
	C10.233891,112.961746 11.526051,113.457848 11.633022,114.139847 
	C11.767091,114.994606 11.155902,116.524986 10.459602,116.827522 
	C9.248045,117.353920 7.528072,117.613548 6.399294,117.120140 
	C5.602148,116.771698 5.429359,114.994896 5.756972,113.329895 
	C6.334095,113.764870 6.911219,114.199844 7.796496,114.941147 
	C8.180615,115.293022 8.256582,115.338570 8.332549,115.384117 
	C8.221055,115.256577 8.109560,115.129028 7.998067,115.001480 
z"/>
<path fill="#D8E7E2" opacity="1.000000" stroke="none" 
	d="
M93.004997,242.998260 
	C94.194389,244.476990 95.383781,245.955734 96.691605,247.728058 
	C93.003616,248.944275 89.928741,247.083954 89.544609,243.420624 
	C89.498108,242.977066 90.823059,242.389694 91.870369,241.783813 
	C92.228348,241.698654 92.190002,241.771927 92.220413,242.024490 
	C92.502220,242.517456 92.753609,242.757858 93.004997,242.998260 
z"/>
<path fill="#DEE9E4" opacity="1.000000" stroke="none" 
	d="
M10.663292,203.008804 
	C11.162223,203.854919 11.323876,204.707993 11.735178,205.775467 
	C9.034703,210.134171 7.614420,210.001205 5.165859,205.324112 
	C6.884644,204.555237 8.605329,203.785507 10.663292,203.008804 
z"/>
<path fill="#DEE9E4" opacity="1.000000" stroke="none" 
	d="
M21.380577,18.993752 
	C20.998175,18.994083 20.999891,18.500576 21.000900,18.253912 
	C21.727560,16.400719 22.453213,14.794189 23.178867,13.187660 
	C24.144104,13.682687 25.695724,13.958021 25.977173,14.709233 
	C27.529833,18.853453 24.297997,18.648705 21.380577,18.993752 
z"/>
<path fill="#DEE9E4" opacity="1.000000" stroke="none" 
	d="
M160.275284,27.606379 
	C159.278305,27.874275 158.510406,27.920284 157.362610,27.896725 
	C156.679504,26.566046 156.376266,25.304937 156.091034,24.118668 
	C157.716156,23.520782 159.130585,23.000414 160.800797,22.385937 
	C161.608841,24.090399 164.864746,25.755901 160.275284,27.606379 
z"/>
<path fill="#DEE9E4" opacity="1.000000" stroke="none" 
	d="
M42.364788,188.980469 
	C41.749001,188.182358 41.502548,187.384232 41.128975,186.294891 
	C42.091011,185.032120 43.180168,184.060593 44.269325,183.089050 
	C45.066666,184.021698 45.864006,184.954346 46.661346,185.886963 
	C45.352268,186.918137 44.043194,187.949310 42.364788,188.980469 
z"/>
<path fill="#DEE9E4" opacity="1.000000" stroke="none" 
	d="
M110.672676,280.867676 
	C111.004501,281.020264 111.001312,281.502991 110.999542,281.744171 
	C109.913231,283.373749 108.828682,284.762146 107.744141,286.150543 
	C107.273239,286.000397 106.802338,285.850250 106.331444,285.700134 
	C106.157578,284.113647 105.983711,282.527191 105.809853,280.940735 
	C107.320183,280.865540 108.830521,280.790314 110.672676,280.867676 
z"/>
<path fill="#C7E2DB" opacity="1.000000" stroke="none" 
	d="
M172.418228,154.928192 
	C172.012970,154.907806 172.028076,154.489182 172.034943,153.909195 
	C173.570267,151.870438 175.098724,150.411667 176.627197,148.952911 
	C176.755539,150.687668 176.883896,152.422440 176.946991,154.588837 
	C175.528992,154.996506 174.176239,154.972534 172.418228,154.928192 
z"/>
<path fill="#DEE9E4" opacity="1.000000" stroke="none" 
	d="
M117.005714,143.002304 
	C116.691223,142.886688 116.432968,142.695221 116.115173,142.213348 
	C117.244087,140.736588 118.488785,139.474411 119.733482,138.212219 
	C120.410507,139.069870 121.832733,140.307526 121.625359,140.714188 
	C120.993797,141.952713 119.733658,142.870728 118.357239,143.955765 
	C117.996277,143.998032 118.000290,144.000000 117.887726,143.787811 
	C117.574867,143.309113 117.318390,143.117996 117.005714,143.002304 
z"/>
<path fill="#DEE9E4" opacity="1.000000" stroke="none" 
	d="
M172.000916,18.000973 
	C172.001862,17.839710 171.933029,17.621880 172.012329,17.523609 
	C173.132416,16.135805 174.272659,14.764241 175.408005,13.388741 
	C176.155914,14.346700 176.903824,15.304661 177.651718,16.262627 
	C175.980286,16.935297 174.308853,17.607960 172.317780,18.139025 
	C171.998169,17.997427 172.000000,18.000000 172.000916,18.000973 
z"/>
<path fill="#DFEAE5" opacity="1.000000" stroke="none" 
	d="
M204.161652,226.528534 
	C202.997238,227.761505 202.170654,229.496994 201.153214,229.617218 
	C199.950119,229.759338 198.582230,228.506836 197.285767,227.858887 
	C197.661667,227.108109 198.037582,226.357330 198.413483,225.606567 
	C200.714859,225.153671 203.016220,224.700775 206.644638,223.986740 
	C205.240585,225.453659 204.827789,225.884933 204.161652,226.528534 
z"/>
<path fill="#DDE8E3" opacity="1.000000" stroke="none" 
	d="
M10.756071,294.835266 
	C11.174905,295.556976 11.347092,296.100861 11.752786,296.818298 
	C10.714482,297.972931 9.442672,298.953979 7.819696,300.205902 
	C6.784662,298.803101 5.958476,297.683380 4.443126,295.629639 
	C6.913390,295.233734 8.711406,294.945587 10.756071,294.835266 
z"/>
<path fill="#DDE8E3" opacity="1.000000" stroke="none" 
	d="
M34.674049,8.867076 
	C35.003151,9.018069 35.000546,9.507657 34.999817,9.752419 
	C33.960346,11.247245 32.921604,12.497309 31.882864,13.747374 
	C31.277864,12.721868 30.098030,11.648507 30.178652,10.680079 
	C30.396221,8.066590 32.101864,7.579201 34.674049,8.867076 
z"/>
<path fill="#DDE8E3" opacity="1.000000" stroke="none" 
	d="
M172.400955,289.996613 
	C171.999069,289.996338 172.000092,289.500549 172.000641,289.252716 
	C173.086014,287.698364 174.170822,286.391876 175.255615,285.085388 
	C176.052292,286.010956 176.848953,286.936493 177.645615,287.862061 
	C176.031357,288.573669 174.417099,289.285278 172.400955,289.996613 
z"/>
<path fill="#DDE8E3" opacity="1.000000" stroke="none" 
	d="
M34.174614,98.923401 
	C33.822308,100.742752 33.209053,102.288048 32.595802,103.833344 
	C31.755634,102.984299 30.267433,102.183342 30.200167,101.276939 
	C30.018522,98.829300 31.202366,97.444031 34.174614,98.923401 
z"/>
<path fill="#DDE8E3" opacity="1.000000" stroke="none" 
	d="
M185.998779,8.999104 
	C185.122528,10.608101 184.247498,12.217992 183.372467,13.827883 
	C182.604202,12.777954 181.149185,11.692337 181.201538,10.685060 
	C181.337143,8.076036 183.094666,7.581450 185.671417,8.856506 
	C186.001831,9.002788 186.000000,9.000000 185.998779,8.999104 
z"/>
<path fill="#DDE8E3" opacity="1.000000" stroke="none" 
	d="
M160.685120,203.058258 
	C161.172485,203.559280 161.345093,204.103104 161.870422,205.036407 
	C162.426697,205.695374 162.687027,205.888168 163.004166,206.004257 
	C163.004166,206.004257 163.000336,206.000107 162.998474,205.998459 
	C161.033752,209.643326 158.861771,210.253632 156.087723,206.510361 
	C157.649796,205.266815 159.010071,204.183929 160.685120,203.058258 
z"/>
<path fill="#DEE9E4" opacity="1.000000" stroke="none" 
	d="
M34.675259,144.866089 
	C35.004787,145.016006 35.001911,145.502945 35.000164,145.746277 
	C33.962212,147.242981 32.926006,148.496353 31.889801,149.749710 
	C31.282238,148.725372 30.098316,147.653458 30.178165,146.685852 
	C30.393885,144.071762 32.100090,143.581345 34.675259,144.866089 
z"/>
<path fill="#DDE8E3" opacity="1.000000" stroke="none" 
	d="
M9.658591,158.068390 
	C10.171813,158.558090 10.344288,159.102371 10.869833,160.035767 
	C11.426744,160.693237 11.686649,160.885925 12.002623,161.003006 
	C12.002623,161.003006 12.000113,161.000000 11.998901,160.999084 
	C9.954726,163.975052 7.818251,165.300446 4.944241,161.230865 
	C6.542982,160.094788 7.930413,159.108871 9.658591,158.068390 
M8.514534,161.426117 
	C8.514534,161.426117 8.565399,161.518341 8.514534,161.426117 
z"/>
<path fill="#DDE8E3" opacity="1.000000" stroke="none" 
	d="
M21.001179,289.001221 
	C21.062016,288.353729 20.889242,287.330811 21.223036,287.123474 
	C22.429762,286.373993 23.773926,285.670166 25.141621,285.473450 
	C25.503452,285.421417 26.135826,287.250366 26.643978,288.215637 
	C24.984276,288.574768 23.324570,288.933899 21.331413,289.144836 
	C20.997967,288.996643 20.999992,289.000000 21.001179,289.001221 
z"/>
<path fill="#DEE9E4" opacity="1.000000" stroke="none" 
	d="
M185.999084,189.999207 
	C185.987274,190.653320 186.225708,191.480957 185.915619,191.928635 
	C185.182358,192.987228 184.265350,193.973373 183.226364,194.713150 
	C183.046677,194.841110 181.242081,193.482147 181.331161,193.040680 
	C181.580582,191.804581 182.285431,190.567215 183.117371,189.592056 
	C183.410828,189.248077 184.592422,189.661758 185.684906,189.865921 
	C186.001297,190.002319 186.000000,190.000000 185.999084,189.999207 
z"/>
<path fill="#D8E7E2" opacity="1.000000" stroke="none" 
	d="
M23.933214,59.086823 
	C23.727411,59.680679 23.176748,60.238716 22.352257,60.913479 
	C22.581738,60.370468 23.085047,59.710735 23.933214,59.086823 
z"/>
<path fill="#DCE9E3" opacity="1.000000" stroke="none" 
	d="
M114.999512,237.999390 
	C114.882751,238.408432 114.766472,238.818069 114.650185,239.227722 
	C114.638229,238.899765 114.626282,238.571808 114.807625,238.122238 
	C115.000916,238.000626 115.000000,238.000000 114.999512,237.999390 
z"/>
<path fill="#DAE8E2" opacity="1.000000" stroke="none" 
	d="
M38.998795,147.998474 
	C38.915436,148.033005 38.833286,148.069061 38.877102,148.053711 
	C39.003071,148.002304 39.000000,148.000000 38.998795,147.998474 
z"/>
<path fill="#DEE9E4" opacity="1.000000" stroke="none" 
	d="
M191.002258,283.003052 
	C190.917252,283.038300 190.829987,283.070526 190.868622,283.049255 
	C190.994507,282.995789 191.000000,283.000000 191.002258,283.003052 
z"/>
<path fill="#DEE9E4" opacity="1.000000" stroke="none" 
	d="
M189.528137,238.541504 
	C189.481628,238.567413 189.574631,238.515594 189.528137,238.541504 
z"/>
<path fill="#DEE9E4" opacity="1.000000" stroke="none" 
	d="
M38.461967,238.526062 
	C38.435982,238.479568 38.487953,238.572571 38.461967,238.526062 
z"/>
<path fill="#E5F4EE" opacity="1.000000" stroke="none" 
	d="
M82.998695,164.996796 
	C87.076370,171.829941 91.523354,178.475449 95.119179,185.553391 
	C98.199730,191.617081 100.305580,198.175949 103.124573,205.220688 
	C100.843925,206.727692 97.595634,208.874100 94.296906,211.053818 
	C93.749359,210.633362 93.311493,210.405823 93.018616,210.056671 
	C74.950623,188.516754 62.152603,163.593796 47.844112,139.640625 
	C46.823853,137.932663 45.773129,136.221085 44.975681,134.406128 
	C42.981735,129.867981 44.295441,125.590294 48.278942,123.161873 
	C52.378838,120.662498 57.216091,121.579338 60.088501,125.846474 
	C62.960003,130.112244 65.430779,134.649155 68.047676,139.084641 
	C72.015526,145.809891 75.957809,152.550232 79.757935,159.864960 
	C78.429298,161.006805 77.253685,161.567841 76.078064,162.128891 
	C77.156609,163.379913 78.033104,164.997696 79.389259,165.744812 
	C80.206894,166.195251 81.770370,165.291840 82.998695,164.996796 
M91.543419,201.909561 
	C92.895813,202.220276 94.247765,202.692261 95.600983,202.695892 
	C95.850204,202.696548 96.558273,200.065933 96.283951,199.896362 
	C94.269836,198.651260 92.059601,197.723389 89.911179,196.695541 
	C89.683235,197.124283 89.455299,197.553009 89.227356,197.981735 
	C89.874863,199.096848 90.522369,200.211945 91.543419,201.909561 
z"/>
<path fill="#E6F4EE" opacity="1.000000" stroke="none" 
	d="
M176.651657,148.556152 
	C175.098724,150.411667 173.570267,151.870438 172.035126,153.699738 
	C170.002533,153.443512 167.976639,152.816742 167.118759,152.551346 
	C164.115738,154.754791 161.864471,156.406647 159.293243,158.033173 
	C159.066895,152.728775 158.970627,147.437683 159.304916,142.173904 
	C159.676392,136.324600 162.864227,132.883606 167.486725,132.751282 
	C172.110336,132.618958 175.244431,135.870239 176.057831,141.751572 
	C176.351562,143.875397 176.474991,146.022751 176.651657,148.556152 
z"/>
<path fill="#E8F5EF" opacity="1.000000" stroke="none" 
	d="
M118.078873,226.378784 
	C116.965103,228.129913 116.032555,230.277802 114.523209,230.819962 
	C111.592323,231.872726 110.721954,233.635590 110.844818,236.820465 
	C108.182236,233.446213 105.586922,229.649826 102.710197,225.441803 
	C106.162636,223.162796 109.392342,221.030823 113.158295,218.544876 
	C114.864021,221.189194 116.431740,223.619583 118.078873,226.378784 
z"/>
<path fill="#009478" opacity="1.000000" stroke="none" 
	d="
M119.752312,47.149902 
	C120.358658,48.680546 121.105919,50.305176 120.705460,51.564980 
	C120.155968,53.293629 119.033134,55.155735 117.600258,56.192902 
	C116.342484,57.103310 114.319145,56.956074 112.551888,56.980560 
	C110.602570,57.358200 108.660057,57.881020 106.697350,57.973072 
	C106.363434,57.988731 105.499283,55.373772 105.630463,55.299503 
	C107.062279,54.488876 108.643486,53.942097 109.850792,52.982971 
	C113.027718,51.015732 116.204643,49.048492 119.752312,47.149902 
z"/>
<path fill="#E5F3EE" opacity="1.000000" stroke="none" 
	d="
M97.005363,107.611725 
	C94.197876,107.322914 91.390503,106.643631 88.276230,105.990074 
	C89.159660,99.695694 92.347099,97.553719 99.791634,98.525406 
	C100.364708,99.947044 100.646484,101.110161 100.964165,102.636642 
	C101.000069,102.999992 100.993668,103.008286 100.993668,103.008286 
	C97.970116,102.808846 96.804626,104.368340 97.005363,107.611725 
z"/>
<path fill="#DAE8E2" opacity="1.000000" stroke="none" 
	d="
M84.131218,117.575424 
	C82.692787,118.758804 81.173698,119.611122 79.193481,120.722168 
	C77.978653,118.899605 76.821999,117.164314 75.666100,115.430161 
	C77.835999,114.557930 79.334991,113.955383 80.996674,113.042770 
	C82.123093,114.236588 83.086830,115.740486 84.131218,117.575424 
z"/>
<path fill="#DCE9E3" opacity="1.000000" stroke="none" 
	d="
M96.002464,153.020935 
	C97.843437,151.524353 99.684418,150.027786 101.752518,148.276184 
	C102.397331,149.057617 102.815033,150.094086 103.282104,151.480453 
	C101.472580,152.883423 99.613670,153.936493 97.136383,154.816437 
	C96.346161,154.102524 96.174309,153.561737 96.002464,153.020935 
z"/>
<path fill="#DCE9E3" opacity="1.000000" stroke="none" 
	d="
M82.942688,164.669479 
	C81.770370,165.291840 80.206894,166.195251 79.389259,165.744812 
	C78.033104,164.997696 77.156609,163.379913 76.078064,162.128891 
	C77.253685,161.567841 78.429298,161.006805 79.814476,160.211365 
	C80.978249,161.432037 81.932465,162.887100 82.942688,164.669479 
z"/>
<path fill="#E5F3EE" opacity="1.000000" stroke="none" 
	d="
M88.010902,108.249977 
	C88.451591,108.131012 88.859711,108.271629 89.267838,108.412247 
	C89.056381,108.587891 88.844933,108.763535 88.406525,108.965866 
	C88.112488,108.831551 88.045410,108.670555 88.010902,108.249977 
z"/>
<path fill="#DCE9E3" opacity="1.000000" stroke="none" 
	d="
M101.940842,147.718750 
	C101.724640,147.726990 101.474884,147.443314 101.181671,146.873291 
	C101.394569,146.866928 101.650925,147.146881 101.940842,147.718750 
z"/>
<path fill="#E8F5EF" opacity="1.000000" stroke="none" 
	d="
M92.964378,242.720810 
	C92.753609,242.757858 92.502220,242.517456 92.179420,242.019073 
	C92.379929,241.988525 92.651848,242.215942 92.964378,242.720810 
z"/>
<path fill="#DEE9E4" opacity="1.000000" stroke="none" 
	d="
M95.690369,152.881668 
	C96.174309,153.561737 96.346161,154.102524 96.750008,154.816147 
	C95.933220,156.262222 94.884422,157.535492 93.835632,158.808762 
	C92.584480,157.112793 91.333336,155.416809 90.041092,153.360413 
	C90.000000,153.000000 90.002670,152.996338 90.002670,152.996338 
	C91.794540,152.911697 93.586411,152.827042 95.690369,152.881668 
z"/>
<path fill="#DEE9E4" opacity="1.000000" stroke="none" 
	d="
M89.998306,153.001328 
	C89.886452,152.871338 89.776291,152.740021 89.666122,152.608704 
	C89.743782,152.654083 89.821442,152.699463 89.950882,152.870605 
	C90.002670,152.996338 90.000000,153.000000 89.998306,153.001328 
z"/>
<path fill="#E8F5EF" opacity="1.000000" stroke="none" 
	d="
M101.000458,12.999666 
	C101.112465,13.128685 101.224014,13.258039 101.335564,13.387390 
	C101.258339,13.342097 101.181114,13.296804 101.051636,13.126179 
	C100.999374,13.000846 101.000000,13.000000 101.000458,12.999666 
z"/>
<path fill="#E8F5EF" opacity="1.000000" stroke="none" 
	d="
M11.885725,160.786591 
	C11.686649,160.885925 11.426744,160.693237 11.103214,160.210541 
	C11.303720,160.107590 11.565487,160.298920 11.885725,160.786591 
z"/>
<path fill="#E8F5EF" opacity="1.000000" stroke="none" 
	d="
M162.887634,205.787277 
	C162.687027,205.888168 162.426697,205.695374 162.103790,205.210968 
	C162.304947,205.107574 162.567169,205.298996 162.887634,205.787277 
z"/>
<path fill="#E5F3EE" opacity="1.000000" stroke="none" 
	d="
M101.004333,102.996658 
	C101.119408,103.126740 101.230225,103.260162 101.341049,103.393578 
	C101.261421,103.349075 101.181793,103.304565 101.047913,103.134171 
	C100.993668,103.008286 101.000069,102.999992 101.004333,102.996658 
z"/>
<path fill="#E8F5EF" opacity="1.000000" stroke="none" 
	d="
M117.118881,143.217224 
	C117.318390,143.117996 117.574867,143.309113 117.889191,143.789886 
	C117.687454,143.892624 117.430389,143.701950 117.118881,143.217224 
z"/>
<path fill="#E8F5EF" opacity="1.000000" stroke="none" 
	d="
M8.475744,25.458294 
	C8.521059,25.432941 8.430429,25.483648 8.475744,25.458294 
z"/>
<path fill="#E8F5EF" opacity="1.000000" stroke="none" 
	d="
M7.999033,115.000740 
	C8.109560,115.129028 8.221055,115.256577 8.332549,115.384117 
	C8.256582,115.338570 8.180615,115.293022 8.053046,115.122787 
	C8.001444,114.998108 8.000000,115.000000 7.999033,115.000740 
z"/>
<path fill="#E8F5EF" opacity="1.000000" stroke="none" 
	d="
M8.539967,161.472229 
	C8.565399,161.518341 8.514534,161.426117 8.539967,161.472229 
z"/>
<path fill="#DDE8E3" opacity="1.000000" stroke="none" 
	d="
M91.356644,201.618301 
	C90.522369,200.211945 89.874863,199.096848 89.227356,197.981735 
	C89.455299,197.553009 89.683235,197.124283 89.911179,196.695541 
	C92.059601,197.723389 94.269836,198.651260 96.283951,199.896362 
	C96.558273,200.065933 95.850204,202.696548 95.600983,202.695892 
	C94.247765,202.692261 92.895813,202.220276 91.356644,201.618301 
z"/>
</svg>