<?xml version="1.0" encoding="UTF-8"?>
<!DOCTYPE svg PUBLIC "-//W3C//DTD SVG 1.1//EN" "http://www.w3.org/Graphics/SVG/1.1/DTD/svg11.dtd">
<svg xmlns="http://www.w3.org/2000/svg" version="1.1" width="210px" height="286px" style="shape-rendering:geometricPrecision; text-rendering:geometricPrecision; image-rendering:optimizeQuality; fill-rule:evenodd; clip-rule:evenodd" xmlns:xlink="http://www.w3.org/1999/xlink">
<g><path style="opacity:1" fill="#29a287" d="M 181.5,83.5 C 177.843,113.112 174.51,142.779 171.5,172.5C 171.719,173.675 171.386,174.675 170.5,175.5C 169.507,170.88 169.173,166.214 169.5,161.5C 169.256,151.094 168.423,140.76 167,130.5C 165.125,124.845 161.292,123.011 155.5,125C 153.622,126.543 152.122,128.376 151,130.5C 150.546,144.51 149.88,158.51 149,172.5C 148.051,175.2 146.217,176.033 143.5,175C 127.207,147.582 111.041,120.082 95,92.5C 90.4059,88.5899 85.7392,88.5899 81,92.5C 79.5432,95.366 79.2099,98.366 80,101.5C 90.5808,120.33 101.414,138.997 112.5,157.5C 115.992,158.161 119.158,159.494 122,161.5C 130.333,174.5 138.667,187.5 147,200.5C 148.167,210.338 144,214.171 134.5,212C 125.295,199.092 116.462,185.925 108,172.5C 107.077,170.966 106.577,169.299 106.5,167.5C 107.021,165.476 107.188,163.476 107,161.5C 92.748,137.998 78.748,114.332 65,90.5C 59.3643,84.9907 54.0309,85.324 49,91.5C 48.3333,93.8333 48.3333,96.1667 49,98.5C 63,122.5 77,146.5 91,170.5C 93.7405,171.282 96.5738,171.782 99.5,172C 100.931,172.465 102.097,173.299 103,174.5C 111.333,187.833 119.667,201.167 128,214.5C 127.953,223.872 123.453,227.039 114.5,224C 111.045,219.589 107.711,215.089 104.5,210.5C 100.996,212.418 97.6628,214.584 94.5,217C 97.1258,221.084 99.6258,225.25 102,229.5C 103.302,239.364 99.1355,243.031 89.5,240.5C 79.7434,226.905 70.5767,212.905 62,198.5C 60.7069,194.418 61.8735,191.251 65.5,189C 56.9553,175.414 48.7886,161.58 41,147.5C 40,145.167 38.3333,143.5 36,142.5C 32.2397,116.562 29.0731,90.5616 26.5,64.5C 15.5126,67.3443 11.3459,63.3443 14,52.5C 15.9162,51.0722 18.0829,50.0722 20.5,49.5C 22.0387,45.5504 23.3721,41.5504 24.5,37.5C 25.5,34.8333 26.5,32.1667 27.5,29.5C 29.9118,29.3059 30.9118,27.9726 30.5,25.5C 32.5996,25.4772 34.4329,26.1439 36,27.5C 39.7554,24.3539 43.9221,23.6872 48.5,25.5C 48.7135,23.8561 48.3802,22.3561 47.5,21C 89.1667,20.3333 130.833,20.3333 172.5,21C 175.063,21.763 175.063,22.263 172.5,22.5C 167.099,20.6609 162.099,21.1609 157.5,24C 163.088,25.0759 168.755,25.9093 174.5,26.5C 168.833,27.1667 163.167,27.8333 157.5,28.5C 163.235,29.6938 169.069,29.6938 175,28.5C 175.772,29.8491 176.939,30.6824 178.5,31C 177.978,31.5613 177.645,32.228 177.5,33C 178.667,35.1667 179.833,37.3333 181,39.5C 181.725,37.842 182.892,37.342 184.5,38C 183.74,39.4411 183.074,40.9411 182.5,42.5C 183.428,43.7678 183.595,45.1011 183,46.5C 181.744,47.0302 180.244,47.0302 178.5,46.5C 177.756,47.9905 177.09,49.4905 176.5,51C 177.744,51.4561 178.577,50.9561 179,49.5C 179.658,51.108 179.158,52.2747 177.5,53C 178.5,53.3333 179.5,53.6667 180.5,54C 180.167,54.3333 179.833,54.6667 179.5,55C 181.167,55.3333 182.833,55.6667 184.5,56C 185.727,58.2696 187.394,60.103 189.5,61.5C 188.758,62.2868 187.925,62.9535 187,63.5C 184.904,61.7342 182.571,60.4009 180,59.5C 178.833,61.3333 177.667,63.1667 176.5,65C 178.065,70.5862 179.065,70.0862 179.5,63.5C 182.896,63.6329 183.229,64.6329 180.5,66.5C 181.869,69.2011 181.536,71.7011 179.5,74C 180.132,77.2704 180.799,80.4371 181.5,83.5 Z M 43.5,114.5 C 48.02,115.517 51.1867,118.184 53,122.5C 63.4142,140.997 74.0809,159.331 85,177.5C 85.8624,183.891 88.3624,189.558 92.5,194.5C 90.8099,197.024 88.6432,199.024 86,200.5C 82.4956,193.793 77.829,188.127 72,183.5C 60.0266,163.05 48.1933,142.55 36.5,122C 37.7124,118.292 40.0457,115.792 43.5,114.5 Z"/></g>
<g><path style="opacity:1" fill="#2ea187" d="M 185.5,37.5 C 186.628,41.5504 187.961,45.5504 189.5,49.5C 194.712,49.7089 197.045,52.3756 196.5,57.5C 196.46,59.4289 196.127,61.2622 195.5,63C 191.637,64.3537 187.637,64.8537 183.5,64.5C 182.459,70.7902 181.792,77.1235 181.5,83.5C 180.799,80.4371 180.132,77.2704 179.5,74C 181.536,71.7011 181.869,69.2011 180.5,66.5C 183.229,64.6329 182.896,63.6329 179.5,63.5C 179.065,70.0862 178.065,70.5862 176.5,65C 177.667,63.1667 178.833,61.3333 180,59.5C 182.571,60.4009 184.904,61.7342 187,63.5C 187.925,62.9535 188.758,62.2868 189.5,61.5C 187.394,60.103 185.727,58.2696 184.5,56C 182.833,55.6667 181.167,55.3333 179.5,55C 179.833,54.6667 180.167,54.3333 180.5,54C 179.5,53.6667 178.5,53.3333 177.5,53C 179.158,52.2747 179.658,51.108 179,49.5C 178.577,50.9561 177.744,51.4561 176.5,51C 177.09,49.4905 177.756,47.9905 178.5,46.5C 180.244,47.0302 181.744,47.0302 183,46.5C 183.595,45.1011 183.428,43.7678 182.5,42.5C 183.074,40.9411 183.74,39.4411 184.5,38C 182.892,37.342 181.725,37.842 181,39.5C 179.833,37.3333 178.667,35.1667 177.5,33C 177.645,32.228 177.978,31.5613 178.5,31C 176.939,30.6824 175.772,29.8491 175,28.5C 169.069,29.6938 163.235,29.6938 157.5,28.5C 163.167,27.8333 168.833,27.1667 174.5,26.5C 168.755,25.9093 163.088,25.0759 157.5,24C 162.099,21.1609 167.099,20.6609 172.5,22.5C 175.063,22.263 175.063,21.763 172.5,21C 130.833,20.3333 89.1667,20.3333 47.5,21C 48.3802,22.3561 48.7135,23.8561 48.5,25.5C 43.9221,23.6872 39.7554,24.3539 36,27.5C 34.4329,26.1439 32.5996,25.4772 30.5,25.5C 30.9118,27.9726 29.9118,29.3059 27.5,29.5C 28.3823,25.5559 30.3823,22.3892 33.5,20C 81.1667,19.3333 128.833,19.3333 176.5,20C 180.727,25.1633 183.727,30.9966 185.5,37.5 Z"/></g>
<g><path style="opacity:0.076" fill="#d5f9f3" d="M 24.5,37.5 C 23.3721,41.5504 22.0387,45.5504 20.5,49.5C 18.0829,50.0722 15.9162,51.0722 14,52.5C 11.3459,63.3443 15.5126,67.3443 26.5,64.5C 29.0731,90.5616 32.2397,116.562 36,142.5C 38.3333,143.5 40,145.167 41,147.5C 48.7886,161.58 56.9553,175.414 65.5,189C 61.8735,191.251 60.7069,194.418 62,198.5C 70.5767,212.905 79.7434,226.905 89.5,240.5C 99.1355,243.031 103.302,239.364 102,229.5C 99.6258,225.25 97.1258,221.084 94.5,217C 97.6628,214.584 100.996,212.418 104.5,210.5C 107.711,215.089 111.045,219.589 114.5,224C 123.453,227.039 127.953,223.872 128,214.5C 119.667,201.167 111.333,187.833 103,174.5C 102.097,173.299 100.931,172.465 99.5,172C 96.5738,171.782 93.7405,171.282 91,170.5C 77,146.5 63,122.5 49,98.5C 48.3333,96.1667 48.3333,93.8333 49,91.5C 54.0309,85.324 59.3643,84.9907 65,90.5C 78.748,114.332 92.748,137.998 107,161.5C 107.188,163.476 107.021,165.476 106.5,167.5C 106.577,169.299 107.077,170.966 108,172.5C 116.462,185.925 125.295,199.092 134.5,212C 144,214.171 148.167,210.338 147,200.5C 138.667,187.5 130.333,174.5 122,161.5C 119.158,159.494 115.992,158.161 112.5,157.5C 101.414,138.997 90.5808,120.33 80,101.5C 79.2099,98.366 79.5432,95.366 81,92.5C 85.7392,88.5899 90.4059,88.5899 95,92.5C 111.041,120.082 127.207,147.582 143.5,175C 146.217,176.033 148.051,175.2 149,172.5C 149.88,158.51 150.546,144.51 151,130.5C 152.122,128.376 153.622,126.543 155.5,125C 161.292,123.011 165.125,124.845 167,130.5C 168.423,140.76 169.256,151.094 169.5,161.5C 168.698,160.048 168.198,158.382 168,156.5C 167.667,149.167 167.333,141.833 167,134.5C 166.764,132.881 165.931,131.881 164.5,131.5C 161.473,123.861 157.639,123.528 153,130.5C 152.552,145.436 151.552,160.436 150,175.5C 147.599,176.602 145.099,176.769 142.5,176C 125.956,149.081 109.789,121.915 94,94.5C 88.9556,90.1736 84.6222,90.8402 81,96.5C 81.4265,100.381 82.7599,104.047 85,107.5C 94.9592,123.917 104.793,140.417 114.5,157C 118.906,157.119 122.406,158.953 125,162.5C 133.004,175.176 141.004,187.843 149,200.5C 150.296,211.45 145.463,215.95 134.5,214C 133.069,213.535 131.903,212.701 131,211.5C 122.271,198.433 113.938,185.099 106,171.5C 105.667,168.167 105.333,164.833 105,161.5C 91.0815,138.665 77.4148,115.665 64,92.5C 60.0424,87.5639 55.7091,87.2305 51,91.5C 49.1457,94.6521 49.479,97.6521 52,100.5C 65.374,123.416 78.874,146.249 92.5,169C 97.713,168.524 101.88,170.358 105,174.5C 112.679,186.533 120.346,198.533 128,210.5C 132.151,219.862 129.151,225.529 119,227.5C 116.755,226.863 114.588,226.03 112.5,225C 109.543,220.92 106.71,216.753 104,212.5C 101.743,214.046 99.5765,215.712 97.5,217.5C 99.8343,221.354 102.001,225.354 104,229.5C 105.031,241.087 99.8647,245.254 88.5,242C 77.4307,227.359 67.764,211.859 59.5,195.5C 60.9765,192.585 61.8098,189.585 62,186.5C 54.0813,173.665 46.4146,160.665 39,147.5C 37.6218,145.787 35.9552,144.453 34,143.5C 29.8808,117.976 26.8808,92.3095 25,66.5C 21.2002,65.8013 17.3669,65.1347 13.5,64.5C 11.9713,62.2927 11.3047,59.7927 11.5,57C 11.0549,51.2745 13.7216,48.1078 19.5,47.5C 20.4256,43.6758 22.0923,40.3425 24.5,37.5 Z M 43.5,114.5 C 40.0457,115.792 37.7124,118.292 36.5,122C 48.1933,142.55 60.0266,163.05 72,183.5C 77.829,188.127 82.4956,193.793 86,200.5C 88.6432,199.024 90.8099,197.024 92.5,194.5C 88.3624,189.558 85.8624,183.891 85,177.5C 74.0809,159.331 63.4142,140.997 53,122.5C 51.1867,118.184 48.02,115.517 43.5,114.5 Z"/></g>
<g><path style="opacity:0.29" fill="#d6f9f4" d="M 40.5,113.5 C 45.1264,112.7 48.9597,114.034 52,117.5C 63.4148,137.332 75.0814,156.998 87,176.5C 87.6556,183.811 90.4889,190.144 95.5,195.5C 92.5541,198.313 89.2208,200.646 85.5,202.5C 83.0843,199.337 80.9177,196.004 79,192.5C 76.961,190.126 74.6277,188.126 72,186.5C 60.9184,167.335 49.5851,148.335 38,129.5C 33.988,123.242 34.8213,117.909 40.5,113.5 Z M 43.5,114.5 C 40.0457,115.792 37.7124,118.292 36.5,122C 48.1933,142.55 60.0266,163.05 72,183.5C 77.829,188.127 82.4956,193.793 86,200.5C 88.6432,199.024 90.8099,197.024 92.5,194.5C 88.3624,189.558 85.8624,183.891 85,177.5C 74.0809,159.331 63.4142,140.997 53,122.5C 51.1867,118.184 48.02,115.517 43.5,114.5 Z"/></g>
<g><path style="opacity:0.267" fill="#d1f6f0" d="M 185.5,37.5 C 188.623,40.0017 190.29,43.335 190.5,47.5C 192.49,48.8732 194.657,49.8732 197,50.5C 201.68,62.6581 197.514,67.9915 184.5,66.5C 181.081,100.853 177.414,135.186 173.5,169.5C 172.833,170.5 172.167,171.5 171.5,172.5C 174.51,142.779 177.843,113.112 181.5,83.5C 181.792,77.1235 182.459,70.7902 183.5,64.5C 187.637,64.8537 191.637,64.3537 195.5,63C 196.127,61.2622 196.46,59.4289 196.5,57.5C 197.045,52.3756 194.712,49.7089 189.5,49.5C 187.961,45.5504 186.628,41.5504 185.5,37.5 Z"/></g>
<g><path style="opacity:0.133" fill="#e3faf3" d="M 164.5,131.5 C 165.931,131.881 166.764,132.881 167,134.5C 167.333,141.833 167.667,149.167 168,156.5C 168.198,158.382 168.698,160.048 169.5,161.5C 169.173,166.214 169.507,170.88 170.5,175.5C 171.386,174.675 171.719,173.675 171.5,172.5C 172.167,171.5 172.833,170.5 173.5,169.5C 172.941,173.853 172.275,178.186 171.5,182.5C 170.178,182.67 169.011,182.337 168,181.5C 167.268,164.745 166.102,148.078 164.5,131.5 Z"/></g>
<g><path style="opacity:1" fill="#2aa287" d="M 83.5,250.5 C 90.3832,256.77 98.0498,261.77 106.5,265.5C 87.674,266.497 68.674,266.83 49.5,266.5C 48.3992,260.928 47.7325,255.262 47.5,249.5C 44.996,226.456 42.496,203.456 40,180.5C 49.9336,198.758 60.267,216.758 71,234.5C 74.945,240.084 79.1117,245.417 83.5,250.5 Z"/></g>
<g><path style="opacity:0.043" fill="#d4f8f2" d="M 83.5,250.5 C 79.1117,245.417 74.945,240.084 71,234.5C 60.267,216.758 49.9336,198.758 40,180.5C 42.496,203.456 44.996,226.456 47.5,249.5C 46.2521,248.666 45.5854,247.333 45.5,245.5C 42.3638,223.267 40.0304,200.934 38.5,178.5C 39.8221,178.33 40.9887,178.663 42,179.5C 54.8635,203.917 68.6968,227.583 83.5,250.5 Z"/></g>
<g><path style="opacity:0.133" fill="#dcfaf5" d="M 162.5,249.5 C 163.008,246.824 163.175,244.157 163,241.5C 160.932,245.07 158.099,247.737 154.5,249.5C 154.062,249.565 153.728,249.399 153.5,249C 156.804,245.181 160.47,242.014 164.5,239.5C 164.665,242.518 164.498,245.518 164,248.5C 163.617,249.056 163.117,249.389 162.5,249.5 Z"/></g>
<g><path style="opacity:1" fill="#67bba8" d="M 162.5,251.5 C 162.31,256.37 161.644,261.036 160.5,265.5C 160.229,260.566 160.896,255.9 162.5,251.5 Z"/></g>
<g><path style="opacity:1" fill="#2da187" d="M 162.5,249.5 C 162.5,250.167 162.5,250.833 162.5,251.5C 160.896,255.9 160.229,260.566 160.5,265.5C 160.5,265.833 160.5,266.167 160.5,266.5C 149.654,266.828 138.987,266.494 128.5,265.5C 137.454,260.529 146.12,255.195 154.5,249.5C 158.099,247.737 160.932,245.07 163,241.5C 163.175,244.157 163.008,246.824 162.5,249.5 Z"/></g>
<g><path style="opacity:0.506" fill="#78cbba" d="M 106.5,265.5 C 107.922,265.709 109.255,266.209 110.5,267C 89.9958,267.829 69.6625,267.663 49.5,266.5C 68.674,266.83 87.674,266.497 106.5,265.5 Z"/></g>
<g><path style="opacity:0.516" fill="#79cbbb" d="M 128.5,265.5 C 138.987,266.494 149.654,266.828 160.5,266.5C 149.007,267.659 137.341,267.826 125.5,267C 126.527,266.487 127.527,265.987 128.5,265.5 Z"/></g>
</svg>
